# xmcd
#
# Track frame offsets:
#	150
#	12590
#	26134
#	40519
#	56818
#	75138
#	98944
#	114869
#	138765
#	156907
#	170715
#	185057
#	201875
#
# Disc length: 2915 seconds
# Revision: 0
# Processed by: cddbd v1.5.2PL0 Copyright (c) Steve Scherf et al.
# Submitted via: dBpowerAMP V12.0
#
DISCID=a60b610d
DTITLE=Mick Clarke - Steppin Out
DYEAR=2018
DGENRE=
TTITLE0=Backroom Boy
TTITLE1=Honky Tonk Blues
TTITLE2=Nuthn'burger Blues
TTITLE3=Spend Your Money
TTITLE4=Big Town Playboy
TTITLE5=Whisky Blues
TTITLE6=Can't Help Myself
TTITLE7=Watch Your Step
TTITLE8=No Way Back
TTITLE9=Early Bird
TTITLE10=Tryin'to Get to You
TTITLE11=Right and Wrong
TTITLE12=20th Century Man
EXTD=
EXTT0=
EXTT1=
EXTT2=
EXTT3=
EXTT4=
EXTT5=
EXTT6=
EXTT7=
EXTT8=
EXTT9=
EXTT10=
EXTT11=
EXTT12=
PLAYORDER=
